# xmcd
#
# Track frame offsets:
#	150
#	12499
#	23795
#	36584
#	49657
#	62279
#	76308
#	88914
#	99247
#	113375
#	132524
#	145041
#	154452
#	170397
#	182210
#	194639
#
# Disc length: 2877 seconds
#
# Revision: 0
# Processed by: cddbd v1.5.2PL0 Copyright (c) Steve Scherf et al.
# Submitted via: audiograbber 1.83.01
#
DISCID=d50b3b10
DTITLE=Varius - COUNTRY
DYEAR=1900
DGENRE=Country
TTITLE0=I WALK THE LINE JOHNNY CASH
TTITLE1=OH LONESOME ME  DON GIBSON
TTITLE2=I CAN`T STOP LOVING YOU  CONWAY TWITTY
TTITLE3=DETROIT CITY  BOBBY BARE
TTITLE4=I FALL TO PIECES  PATSY CLINE
TTITLE5=GOIN`HOME  WILLI NELSON
TTITLE6=57 CHEVROLET  BILLIE JO SPEARS
TTITLE7=WHITE LIGHTNING  WAYLON JENNINGS
TTITLE8=A SHOULDER TO CRY ON  CHARLY PRIDE
TTITLE9=EL PASO CITY  MARTY ROBBINS
TTITLE10=D I V O R C E  ROSANNE CASH
TTITLE11=LOTTA LOVIN  MICKY GILLEY
TTITLE12=LITTLE MOUNTAIN CHURCH HOUSE NITTI GRITTY DIRT BAND
TTITLE13=CRAZY ARMS  JERRY LEE LEWIS
TTITLE14=SOME BROKEN HEARTS NEVER MEND  DON WILLIAMS
TTITLE15=BANKS OF THE OHIO  OLIVIA NEWTON JOHN
EXTD=
EXTT0=
EXTT1=
EXTT2=
EXTT3=
EXTT4=
EXTT5=
EXTT6=
EXTT7=
EXTT8=
EXTT9=
EXTT10=
EXTT11=
EXTT12=
EXTT13=
EXTT14=
EXTT15=
PLAYORDER=
